#!OML:ASF E:/inclinewalkrobotboard/Project1/Captureday1/Session1/subject1.ASF
:FULLY-SPECIFIED
:DEGREES
1
root 0 0 0 1.0750978555360375 -3.6428223600589424 1.8669112302985535
lowerback 11.923894729648582 0.8608309407327961 -0.06886036642056387
upperback -4.238350587603931 1.0899319413801303 -0.5643768456873621
thorax -11.313880085444836 0.49789880160122335 -0.8037274862829288
lowerneck -5.751628325990337 1.45883003489289 4.555619084519929
upperneck 18.13445388191569 2.8968179917868655 -8.283461105069037
head 6.6200359530532396 1.053479856053158 -3.207485145234566
rclavicle -1.0608667101872586E-15 -1.762358505837849E-17
rhumerus 20.132340441624294 14.685125185721216 -48.16466652078261
rradius 72.52453362567938
rwrist 26.727345616295345
rhand -34.7856840782478 -57.4067804376426
rfingers 7.125020000000039
rthumb -7.946499136768853 -87.32198168343896
lclavicle 7.117439509347622E-16 -1.4615641844523338E-15
lhumerus 20.809888883967055 -12.720319357865135 45.328629993779515
lradius 69.91346092052481
lwrist -22.25856784297808
lhand -44.77801503220748 -69.73935124444235
lfingers 7.1250200000000286
lthumb -17.56977767117078 -40.538928711917386
rfemur -24.881503922073243 -2.2100769933171547 17.21140770881398
rtibia 54.04458238739448
rfoot -29.06031481717369 -16.725449808899672
rtoes -17.66710927718916
lfemur -26.702143916948884 2.40738683394969 -18.297168142082295
ltibia 54.21139333406882
lfoot -31.04039953471441 -3.5555983408998535
ltoes -19.5505206839698
2
root 0 0 0 1.0712762349565923 -3.6466825511266006 1.8668374328140407
lowerback 11.92517804601298 0.8603124446329194 -0.06616994803070808
upperback -4.235883322535697 1.0896262085170791 -0.5632253847995055
thorax -11.311634501952474 0.4976909959338388 -0.8039029608561262
lowerneck -5.732339379341152 1.4554710233778065 4.5580281234451485
upperneck 18.121254037279993 2.892506855180714 -8.291556312784373
head 6.6124953896585925 1.0517333964708673 -3.2108420458429228
rclavicle -9.60237519003779E-16 -3.64291459227777E-16
rhumerus 20.134921425145635 14.681902811948543 -48.15093450399352
rradius 72.52687842588588
rwrist 26.74255005341104
rhand -34.79422741266213 -57.44239658205764
rfingers 7.125020000000038
rthumb -7.953787916181241 -87.35868759251466
lclavicle 8.462268697593311E-16 -1.7714722777909733E-15
lhumerus 20.833393141576693 -12.719143801176344 45.30855824456618
lradius 69.92437768796283
lwrist -22.274254714088933
lhand -44.7879811629344 -69.81465504311512
lfingers 7.1250200000000286
lthumb -17.5791821991088 -40.616844766913125
rfemur -24.892315159304154 -2.212094223104988 17.208365393396246
rtibia 54.04916169418426
rfoot -29.075570375766073 -16.734163424311063
rtoes -17.668706913885124
lfemur -26.713919210590443 2.406386811551739 -18.29720886960169
ltibia 54.195546068441466
lfoot -31.057042775250206 -3.5392392469129925
ltoes -19.565580425864933
3
root 0 0 0 1.0679607679377014 -3.6523197994212975 1.8662063097428172
lowerback 11.925268585136841 0.8597647654408423 -0.06455936160654324
upperback -4.23370094614224 1.089184363209171 -0.5620309927776066
thorax -11.309145152727694 0.49745179824065855 -0.8033755092916838
lowerneck -5.719744003188461 1.4535663775119634 4.559581403990656
upperneck 18.113179506108516 2.8903589085334582 -8.296954421255052
head 6.607750931538056 1.050860210018387 -3.2130083458090604
rclavicle -1.011390410838998E-15 -3.250161105505776E-16
rhumerus 20.140277030142073 14.686069124043822 -48.14833686160163
rradius 72.53158902039011
rwrist 26.743618737646994
rhand -34.792575954593524 -57.44453924794733
rfingers 7.125020000000038
rthumb -7.95245764103416 -87.35959644767348
lclavicle 7.67125653040941E-16 -1.7432700121032957E-15
lhumerus 20.83199593768931 -12.718761064186682 45.31263341242597
lradius 69.92333215518019
lwrist -22.27183764486768
lhand -44.78969244355825 -69.81735235694372
lfingers 7.1250200000000286
lthumb -17.58074277453435 -40.62056495552772
rfemur -24.893588195645076 -2.212458670285192 17.20808267503887
rtibia 54.04913370356565
rfoot -29.077287051383482 -16.73461079821782
rtoes -17.67003181971055
lfemur -26.709860360383033 2.4052186551959394 -18.296719376623777
ltibia 54.18617397768847
lfoot -31.06185056700992 -3.535296672817358
ltoes -19.579604802151245
4
root 0 0 0 1.0648571170083407 -3.657833409725616 1.8655516849129539
lowerback 11.925280330986036 0.8592247298356818 -0.06314705106256119
upperback -4.231683245041311 1.0887290824172835 -0.560876040395069
thorax -11.306808430697007 0.4972090828101172 -0.8027823635924421
lowerneck -5.708170352457449 1.4518441624372351 4.5608805371830705
upperneck 18.105942152829137 2.888439479776158 -8.30176503374692
head 6.60345146298927 1.0500831354986704 -3.2149214038968497
rclavicle -9.957377792198133E-16 -3.2697574831609477E-16
rhumerus 20.145542159218436 14.691193031954668 -48.145726636439626
rradius 72.53507379897398
rwrist 26.742991236118147
rhand -34.78505719292134 -57.43474910985864
rfingers 7.125020000000038
rthumb -7.9452706793336 -87.34909433616222
lclavicle 7.906881406038389E-16 -1.7443220015761152E-15
lhumerus 20.836944220633484 -12.726318260218797 45.30574518812264
lradius 69.92871954536506
lwrist -22.272520869745705
lhand -44.78685114446501 -69.79850465129067
lfingers 7.1250200000000286
lthumb -17.578042810995917 -40.60159316604329
rfemur -24.893158565055106 -2.2119559209409028 17.20717743506439
rtibia 54.04932201523741
rfoot -29.077253437990024 -16.735282317195235
rtoes -17.671201444517088
lfemur -26.70383433936816 2.405426241523288 -18.29624436328506
ltibia 54.17794364247602
lfoot -31.064496480022008 -3.53064419989228
ltoes -19.59333793171772
5
root 0 0 0 1.062341320274467 -3.6624314570376297 1.8650012521276356
lowerback 11.925128852668323 0.8587874331902577 -0.06218246446662229
upperback -4.2301546576582245 1.0883447732088032 -0.5599773761411152
thorax -11.304971099879353 0.49700816052502955 -0.8022336593551684
lowerneck -5.6997109262127275 1.4507072596387303 4.56191256541269
upperneck 18.10084178451959 2.8872706324472315 -8.305369489669964
head 6.6003729333029035 1.0496060390763684 -3.2163394673250463
rclavicle -9.701272567282733E-16 -3.3841538445042943E-16
rhumerus 20.14750517189691 14.69452891274469 -48.14504344002702
rradius 72.53646377165357
rwrist 26.741595737224532
rhand -34.779865565753745 -57.42721815501292
rfingers 7.125020000000038
rthumb -7.940219286228962 -87.34217143416267
lclavicle 8.164424651600771E-16 -1.7516197278262574E-15
lhumerus 20.83915289640436 -12.730333753420673 45.30126266903383
lradius 69.9314477017739
lwrist -22.27341871181613
lhand -44.78450958311969 -69.78549686125118
lfingers 7.1250200000000286
lthumb -17.57567450620028 -40.5882835945009
rfemur -24.893977122971457 -2.212406261017982 17.20804887508721
rtibia 54.0488842228703
rfoot -29.07825748024766 -16.734076599391848
rtoes -17.671074428691227
lfemur -26.697848417800028 2.405180810627801 -18.295974747240678
ltibia 54.176833550499936
lfoot -31.062862027511606 -3.5321761387233552
ltoes -19.59994882036293
6
root 0 0 0 1.060475432221422 -3.6658081611182087 1.8645951153722158
lowerback 11.925068295118207 0.8584617020365374 -0.06141174016705117
upperback -4.22898787768062 1.088062706954583 -0.5592955352435496
thorax -11.303591807697927 0.4968597003203826 -0.8018438357561406
lowerneck -5.693143959971874 1.4497824863594515 4.562675940730239
upperneck 18.096823451657855 2.8862814318308314 -8.308127837413855
head 6.597962522874273 1.0492042468783822 -3.21742901219996
rclavicle -9.567303352362416E-16 -3.3871942610773516E-16
rhumerus 20.149836582271625 14.697382354411976 -48.14409628301326
rradius 72.53806770371642
rwrist 26.740738097183396
rhand -34.775478505068556 -57.42096052674262
rfingers 7.125020000000038
rthumb -7.936008615447189 -87.33589025516294
lclavicle 8.316479425160646E-16 -1.75086565111022E-15
lhumerus 20.84139407983899 -12.734357641685493 45.29759895969889
lradius 69.93425301006555
lwrist -22.273844132406598
lhand -44.78269991508018 -69.77398106993576
lfingers 7.1250200000000286
lthumb -17.573909465451422 -40.5765961534951
rfemur -24.894034805515577 -2.2124078558036158 17.20817514050095
rtibia 54.048904439044364
rfoot -29.078409986730637 -16.733830224367185
rtoes -17.671163829476743
lfemur -26.69410150030425 2.405290371813717 -18.295725020601065
ltibia 54.17564758554643
lfoot -31.062206518132182 -3.5318911248114095
ltoes -19.605473689769582
